<?xml version="1.0" encoding="utf-8"?>
<svg version="1.1" xmlns:xlink="http://www.w3.org/1999/xlink" width="415px" height="63px" xmlns="http://www.w3.org/2000/svg">
  <defs>
    <mask fill="white" id="clip38">
      <path d="M 0 55.125  L 0 7.875  C 0 3.464999999999982  6.521428571428538 0  14.821428571428571 0  L 215.31493506493015 0  L 312.3279220779147 0  L 400.17857142857144 0  C 408.47857142857146 0  415 3.464999999999982  415 7.875  L 415 55.125  C 415 59.53500000000002  408.47857142857146 63  400.17857142857144 63  L 14.821428571428571 63  C 6.521428571428538 63  0 59.53500000000002  0 55.125  Z " fill-rule="evenodd" />
    </mask>
  </defs>
  <g transform="matrix(1 0 0 1 -94 -961 )">
    <path d="M 0 55.125  L 0 7.875  C 0 3.464999999999982  6.521428571428538 0  14.821428571428571 0  L 215.31493506493015 0  L 312.3279220779147 0  L 400.17857142857144 0  C 408.47857142857146 0  415 3.464999999999982  415 7.875  L 415 55.125  C 415 59.53500000000002  408.47857142857146 63  400.17857142857144 63  L 14.821428571428571 63  C 6.521428571428538 63  0 59.53500000000002  0 55.125  Z " fill-rule="nonzero" fill="#fdb813" stroke="none" transform="matrix(1 0 0 1 94 961 )" />
    <path d="M 0 55.125  L 0 7.875  C 0 3.464999999999982  6.521428571428538 0  14.821428571428571 0  L 215.31493506493015 0  L 312.3279220779147 0  L 400.17857142857144 0  C 408.47857142857146 0  415 3.464999999999982  415 7.875  L 415 55.125  C 415 59.53500000000002  408.47857142857146 63  400.17857142857144 63  L 14.821428571428571 63  C 6.521428571428538 63  0 59.53500000000002  0 55.125  Z " stroke-width="2" stroke="#797979" fill="none" transform="matrix(1 0 0 1 94 961 )" mask="url(#clip38)" />
  </g>
</svg>