<?xml version="1.0" encoding="utf-8"?>
<svg version="1.1" xmlns:xlink="http://www.w3.org/1999/xlink" width="13px" height="13px" viewBox="119 724  13 13" xmlns="http://www.w3.org/2000/svg">
  <path d="M 125.5 724  C 129.14 724  132 726.86  132 730.5  C 132 734.14  129.14 737  125.5 737  C 121.86 737  119 734.14  119 730.5  C 119 726.86  121.86 724  125.5 724  Z " fill-rule="nonzero" fill="#f0f0f0" stroke="none" />
  <path d="M 125.5 724.5  C 128.86 724.5  131.5 727.14  131.5 730.5  C 131.5 733.86  128.86 736.5  125.5 736.5  C 122.14 736.5  119.5 733.86  119.5 730.5  C 119.5 727.14  122.14 724.5  125.5 724.5  Z " stroke-width="1" stroke="#797979" fill="none" />
  <path d="M 125.5 733.75  C 123.68 733.75  122.25 732.32  122.25 730.5  C 122.25 728.68  123.68 727.25  125.5 727.25  C 127.32 727.25  128.75 728.68  128.75 730.5  C 128.75 732.32  127.32 733.75  125.5 733.75  " fill-rule="nonzero" fill="#797979" stroke="none" />
</svg>