<?xml version="1.0" encoding="utf-8"?>
<svg version="1.1" xmlns:xlink="http://www.w3.org/1999/xlink" width="13px" height="13px" viewBox="118 764  13 13" xmlns="http://www.w3.org/2000/svg">
  <path d="M 124.5 764  C 128.14 764  131 766.86  131 770.5  C 131 774.14  128.14 777  124.5 777  C 120.86 777  118 774.14  118 770.5  C 118 766.86  120.86 764  124.5 764  Z " fill-rule="nonzero" fill="#ffffff" stroke="none" />
  <path d="M 124.5 764.5  C 127.86 764.5  130.5 767.14  130.5 770.5  C 130.5 773.86  127.86 776.5  124.5 776.5  C 121.14 776.5  118.5 773.86  118.5 770.5  C 118.5 767.14  121.14 764.5  124.5 764.5  Z " stroke-width="1" stroke="#797979" fill="none" />
  <path d="M 124.5 773.75  C 122.68 773.75  121.25 772.32  121.25 770.5  C 121.25 768.68  122.68 767.25  124.5 767.25  C 126.32 767.25  127.75 768.68  127.75 770.5  C 127.75 772.32  126.32 773.75  124.5 773.75  " fill-rule="nonzero" fill="#797979" stroke="none" />
</svg>