<?xml version="1.0" encoding="utf-8"?>
<svg version="1.1" xmlns:xlink="http://www.w3.org/1999/xlink" width="908px" height="86px" xmlns="http://www.w3.org/2000/svg">
  <defs>
    <mask fill="white" id="clip8">
      <path d="M 0 75.25  L 0 10.75  C 0 4.729999999999976  14.268571428571354 0  32.42857142857142 0  L 471.09870129869057 0  L 683.3584415584254 0  L 875.5714285714286 0  C 893.7314285714286 0  908 4.729999999999976  908 10.75  L 908 75.25  C 908 81.27000000000002  893.7314285714286 86  875.5714285714286 86  L 32.42857142857142 86  C 14.268571428571354 86  0 81.27000000000002  0 75.25  Z " fill-rule="evenodd" />
    </mask>
  </defs>
  <g transform="matrix(1 0 0 1 -960 -890 )">
    <path d="M 0 75.25  L 0 10.75  C 0 4.729999999999976  14.268571428571354 0  32.42857142857142 0  L 471.09870129869057 0  L 683.3584415584254 0  L 875.5714285714286 0  C 893.7314285714286 0  908 4.729999999999976  908 10.75  L 908 75.25  C 908 81.27000000000002  893.7314285714286 86  875.5714285714286 86  L 32.42857142857142 86  C 14.268571428571354 86  0 81.27000000000002  0 75.25  Z " fill-rule="nonzero" fill="#fdb813" stroke="none" transform="matrix(1 0 0 1 960 890 )" />
    <path d="M 0 75.25  L 0 10.75  C 0 4.729999999999976  14.268571428571354 0  32.42857142857142 0  L 471.09870129869057 0  L 683.3584415584254 0  L 875.5714285714286 0  C 893.7314285714286 0  908 4.729999999999976  908 10.75  L 908 75.25  C 908 81.27000000000002  893.7314285714286 86  875.5714285714286 86  L 32.42857142857142 86  C 14.268571428571354 86  0 81.27000000000002  0 75.25  Z " stroke-width="2" stroke="#797979" fill="none" transform="matrix(1 0 0 1 960 890 )" mask="url(#clip8)" />
  </g>
</svg>