<?xml version="1.0" encoding="utf-8"?>
<svg version="1.1" xmlns:xlink="http://www.w3.org/1999/xlink" width="47px" height="50px" xmlns="http://www.w3.org/2000/svg">
  <g transform="matrix(1 0 0 1 -1723 -382 )">
    <path d="M 45.806640625 2.24609375  C 46.60221354166667 2.6150173611111107  47 3.2552083333333313  47 4.166666666666669  L 47 18.75  C 47 19.31423611111111  46.80620659722222 19.80251736111111  46.41861979166667 20.21484375  C 46.031032986111114 20.62717013888889  45.572048611111114 20.833333333333332  45.04166666666667 21  L 31.333333333333332 21  C 30.4765625 20.833333333333332  29.87478298611111 20.399305555555557  29.527994791666668 19.53125  C 29.181206597222225 18.684895833333332  29.324001736111118 17.936197916666668  29.956380208333332 17.28515625  L 34.17903645833333 12.79296875  C 31.159939236111118 9.819878472222216  27.600260416666668 8.333333333333332  23.5 8.333333333333332  C 21.378472222222225 8.333333333333332  19.353841145833336 8.772786458333332  17.426106770833336 9.651692708333332  C 15.498372395833334 10.530598958333332  13.830729166666666 11.71875  12.423177083333334 13.216145833333332  C 11.015625 14.713541666666668  9.898763020833332 16.487630208333332  9.072591145833332 18.538411458333332  C 8.246419270833332 20.589192708333332  7.833333333333333 22.743055555555554  7.833333333333333 25  C 7.833333333333333 27.256944444444443  8.246419270833332 29.410807291666664  9.072591145833332 31.461588541666664  C 9.898763020833332 33.512369791666664  11.015625 35.286458333333336  12.423177083333334 36.783854166666664  C 13.830729166666666 38.28125  15.498372395833334 39.46940104166667  17.426106770833336 40.34830729166667  C 19.353841145833336 41.22721354166667  21.378472222222225 41.66666666666667  23.5 41.66666666666667  C 25.92751736111111 41.66666666666667  28.22243923611111 41.10243055555556  30.384765625 39.97395833333333  C 32.54709201388889 38.84548611111111  34.372829861111114 37.25043402777778  35.86197916666667 35.188802083333336  C 36.00477430555556 34.97178819444444  36.23936631944445 34.84157986111111  36.56575520833333 34.798177083333336  C 36.87174479166667 34.798177083333336  37.126736111111114 34.895833333333336  37.33072916666667 35.091145833333336  L 41.52278645833333 39.58333333333333  C 41.70638020833333 39.75694444444444  41.80327690972222 39.97938368055556  41.8134765625 40.25065104166667  C 41.82367621527778 40.52191840277777  41.74717881944445 40.76605902777777  41.583984375 40.98307291666667  C 39.36046006944445 43.84765625  36.667751736111114 46.06662326388889  33.505859375 47.63997395833333  C 30.343967013888893 49.21332465277777  27.008680555555557 50  23.5 50  C 20.317708333333336 50  17.278211805555557 49.33810763888889  14.381510416666666 48.01432291666667  C 11.484809027777779 46.69053819444444  8.985894097222223 44.91102430555556  6.884765625 42.67578125  C 4.783637152777778 40.44053819444444  3.1108940972222228 37.78211805555556  1.8665364583333335 34.700520833333336  C 0.6221788194444446 31.618923611111104  0 28.385416666666664  0 25  C 0 21.614583333333332  0.6221788194444446 18.38107638888889  1.8665364583333335 15.299479166666668  C 3.1108940972222228 12.217881944444443  4.783637152777778 9.559461805555552  6.884765625 7.32421875  C 8.985894097222223 5.088975694444442  11.484809027777779 3.3094618055555527  14.381510416666666 1.9856770833333315  C 17.278211805555557 0.6618923611111105  20.317708333333336 0  23.5 0  C 26.498697916666668 0  29.40049913194445 0.6022135416666685  32.20540364583333 1.806640625  C 35.01030815972222 3.0110677083333313  37.50412326388889 4.709201388888884  39.68684895833333 6.901041666666669  L 43.66471354166667 2.7018229166666687  C 44.25629340277778 2.0290798611111107  44.97026909722222 1.877170138888884  45.806640625 2.24609375  Z " fill-rule="nonzero" fill="#000000" stroke="none" transform="matrix(1 0 0 1 1723 382 )" />
  </g>
</svg>