<?xml version="1.0" encoding="utf-8"?>
<svg version="1.1" xmlns:xlink="http://www.w3.org/1999/xlink" width="461px" height="86px" xmlns="http://www.w3.org/2000/svg">
  <defs>
    <mask fill="white" id="clip7">
      <path d="M 0 75.25  L 0 10.75  C 0 4.729999999999976  7.2442857142856765 0  16.46428571428571 0  L 239.18116883116338 0  L 346.9474025973944 0  L 444.5357142857143 0  C 453.7557142857143 0  461 4.729999999999976  461 10.75  L 461 75.25  C 461 81.27000000000002  453.7557142857143 86  444.5357142857143 86  L 16.46428571428571 86  C 7.2442857142856765 86  0 81.27000000000002  0 75.25  Z " fill-rule="evenodd" />
    </mask>
  </defs>
  <g transform="matrix(1 0 0 1 -80 -547 )">
    <path d="M 0 75.25  L 0 10.75  C 0 4.729999999999976  7.2442857142856765 0  16.46428571428571 0  L 239.18116883116338 0  L 346.9474025973944 0  L 444.5357142857143 0  C 453.7557142857143 0  461 4.729999999999976  461 10.75  L 461 75.25  C 461 81.27000000000002  453.7557142857143 86  444.5357142857143 86  L 16.46428571428571 86  C 7.2442857142856765 86  0 81.27000000000002  0 75.25  Z " fill-rule="nonzero" fill="#fdb813" stroke="none" transform="matrix(1 0 0 1 80 547 )" />
    <path d="M 0 75.25  L 0 10.75  C 0 4.729999999999976  7.2442857142856765 0  16.46428571428571 0  L 239.18116883116338 0  L 346.9474025973944 0  L 444.5357142857143 0  C 453.7557142857143 0  461 4.729999999999976  461 10.75  L 461 75.25  C 461 81.27000000000002  453.7557142857143 86  444.5357142857143 86  L 16.46428571428571 86  C 7.2442857142856765 86  0 81.27000000000002  0 75.25  Z " stroke-width="2" stroke="#797979" fill="none" transform="matrix(1 0 0 1 80 547 )" mask="url(#clip7)" />
  </g>
</svg>