<?xml version="1.0" encoding="utf-8"?>
<svg version="1.1" xmlns:xlink="http://www.w3.org/1999/xlink" width="50px" height="50px" xmlns="http://www.w3.org/2000/svg">
  <g transform="matrix(1 0 0 1 -1789 -90 )">
    <path d="M 30.891927083333332 30.891927083333336  C 32.51953125 29.264322916666664  33.33333333333333 27.30034722222222  33.33333333333333 25  C 33.33333333333333 22.699652777777775  32.51953125 20.735677083333332  30.891927083333332 19.108072916666668  C 29.264322916666668 17.48046875  27.300347222222225 16.666666666666668  25 16.666666666666668  C 22.69965277777778 16.666666666666668  20.735677083333336 17.48046875  19.108072916666664 19.108072916666668  C 17.48046875 20.735677083333332  16.666666666666664 22.699652777777775  16.666666666666664 25  C 16.666666666666664 27.30034722222222  17.48046875 29.264322916666664  19.108072916666664 30.891927083333336  C 20.735677083333336 32.51953125  22.69965277777778 33.333333333333336  25 33.333333333333336  C 27.300347222222225 33.333333333333336  29.264322916666668 32.51953125  30.891927083333332 30.891927083333336  Z M 49.73958333333333 20.686848958333332  C 49.91319444444444 20.914713541666668  50 21.16970486111111  50 21.451822916666668  L 50 28.678385416666664  C 50 28.938802083333336  49.91319444444444 29.188368055555557  49.73958333333333 29.427083333333336  C 49.56597222222223 29.665798611111104  49.34895833333333 29.806857638888886  49.08854166666667 29.850260416666664  L 43.06640625 30.76171875  C 42.654079861111114 31.93359375  42.230902777777786 32.92100694444444  41.796875 33.723958333333336  C 42.556423611111114 34.80902777777778  43.71744791666667 36.30642361111111  45.27994791666667 38.21614583333333  C 45.49696180555556 38.4765625  45.60546875 38.74782986111111  45.60546875 39.02994791666667  C 45.60546875 39.31206597222223  45.5078125 39.56163194444444  45.3125 39.77864583333333  C 44.7265625 40.58159722222223  43.65234375 41.75347222222223  42.08984375 43.29427083333333  C 40.52734375 44.83506944444444  39.50737847222223 45.60546875  39.02994791666667 45.60546875  C 38.76953125 45.60546875  38.48741319444445 45.5078125  38.18359375 45.3125  L 33.69140625 41.796875  C 32.73654513888889 42.29600694444444  31.749131944444446 42.70833333333333  30.729166666666668 43.03385416666667  C 30.381944444444446 45.98524305555556  30.067274305555557 48.00347222222223  29.78515625 49.08854166666667  C 29.63324652777778 49.69618055555556  29.24262152777778 50  28.61328125 50  L 21.38671875 50  C 21.082899305555557 50  20.817057291666664 49.90776909722223  20.589192708333336 49.72330729166667  C 20.361328125 49.53884548611111  20.236545138888893 49.30555555555556  20.21484375 49.0234375  L 19.303385416666664 43.03385416666667  C 18.240017361111114 42.68663194444444  17.263454861111114 42.28515625  16.373697916666664 41.82942708333333  L 11.783854166666668 45.3125  C 11.566840277777779 45.5078125  11.295572916666668 45.60546875  10.970052083333332 45.60546875  C 10.66623263888889 45.60546875  10.394965277777779 45.48611111111111  10.15625 45.24739583333333  C 7.421875 42.7734375  5.631510416666666 40.95052083333333  4.78515625 39.77864583333333  C 4.633246527777779 39.56163194444444  4.557291666666666 39.31206597222223  4.557291666666666 39.02994791666667  C 4.557291666666666 38.76953125  4.644097222222223 38.51996527777777  4.817708333333334 38.28125  C 5.143229166666666 37.82552083333333  5.696614583333334 37.10394965277778  6.477864583333333 36.116536458333336  C 7.259114583333333 35.129123263888886  7.845052083333333 34.36414930555555  8.235677083333332 33.821614583333336  C 7.649739583333333 32.736545138888886  7.204861111111112 31.662326388888886  6.901041666666667 30.598958333333336  L 0.9440104166666666 29.720052083333336  C 0.6618923611111112 29.676649305555557  0.4340277777777778 29.541015625  0.26041666666666663 29.313151041666664  C 0.08680555555555555 29.085286458333336  0 28.830295138888886  0 28.548177083333336  L 0 21.321614583333332  C 0 21.061197916666668  0.08680555555555555 20.811631944444443  0.26041666666666663 20.572916666666668  C 0.4340277777777778 20.33420138888889  0.6401909722222223 20.19314236111111  0.87890625 20.149739583333332  L 6.93359375 19.23828125  C 7.237413194444445 18.24001736111111  7.660590277777778 17.24175347222222  8.203125 16.243489583333332  C 7.335069444444445 15.006510416666668  6.174045138888889 13.509114583333332  4.720052083333334 11.751302083333332  C 4.503038194444445 11.490885416666668  4.39453125 11.23046875  4.39453125 10.970052083333332  C 4.39453125 10.753038194444443  4.4921875 10.503472222222216  4.6875 10.221354166666668  C 5.251736111111112 9.440104166666668  6.320529513888889 8.273654513888884  7.893880208333333 6.722005208333331  C 9.467230902777779 5.170355902777773  10.492621527777779 4.39453125  10.970052083333332 4.39453125  C 11.25217013888889 4.39453125  11.534288194444446 4.503038194444442  11.81640625 4.720052083333331  L 16.30859375 8.203125  C 17.263454861111114 7.703993055555553  18.250868055555557 7.291666666666669  19.270833333333336 6.966145833333331  C 19.618055555555557 4.014756944444442  19.932725694444446 1.9965277777777735  20.21484375 0.9114583333333315  C 20.366753472222225 0.303819444444442  20.757378472222225 0  21.38671875 0  L 28.61328125 0  C 28.917100694444446 0  29.182942708333332 0.09223090277777346  29.410807291666668 0.2766927083333315  C 29.638671875 0.46115451388888395  29.76345486111111 0.694444444444442  29.78515625 0.9765625  L 30.696614583333332 6.966145833333331  C 31.75998263888889 7.313368055555553  32.73654513888889 7.71484375  33.62630208333333 8.170572916666668  L 38.24869791666667 4.6875  C 38.44401041666667 4.4921875  38.70442708333333 4.39453125  39.02994791666667 4.39453125  C 39.31206597222223 4.39453125  39.58333333333333 4.503038194444442  39.84375 4.720052083333331  C 42.64322916666667 7.302517361111111  44.43359375 9.147135416666668  45.21484375 10.25390625  C 45.36675347222223 10.42751736111111  45.44270833333333 10.666232638888884  45.44270833333333 10.970052083333332  C 45.44270833333333 11.23046875  45.355902777777786 11.480034722222216  45.18229166666667 11.71875  C 44.85677083333333 12.174479166666668  44.30338541666667 12.896050347222216  43.52213541666667 13.883463541666668  C 42.74088541666667 14.87087673611111  42.15494791666667 15.635850694444443  41.76432291666667 16.178385416666668  C 42.328559027777786 17.26345486111111  42.7734375 18.326822916666664  43.09895833333333 19.368489583333332  L 49.05598958333333 20.279947916666668  C 49.33810763888889 20.323350694444443  49.56597222222223 20.458984374999993  49.73958333333333 20.686848958333332  Z " fill-rule="nonzero" fill="#000000" stroke="none" transform="matrix(1 0 0 1 1789 90 )" />
  </g>
</svg>