<?xml version="1.0" encoding="utf-8"?>
<svg version="1.1" xmlns:xlink="http://www.w3.org/1999/xlink" width="13px" height="13px" viewBox="118 513  13 13" xmlns="http://www.w3.org/2000/svg">
  <path d="M 124.5 513  C 128.14 513  131 515.86  131 519.5  C 131 523.14  128.14 526  124.5 526  C 120.86 526  118 523.14  118 519.5  C 118 515.86  120.86 513  124.5 513  Z " fill-rule="nonzero" fill="#ffffff" stroke="none" />
  <path d="M 124.5 513.5  C 127.86 513.5  130.5 516.14  130.5 519.5  C 130.5 522.86  127.86 525.5  124.5 525.5  C 121.14 525.5  118.5 522.86  118.5 519.5  C 118.5 516.14  121.14 513.5  124.5 513.5  Z " stroke-width="1" stroke="#797979" fill="none" />
  <path d="M 124.5 522.75  C 122.68 522.75  121.25 521.32  121.25 519.5  C 121.25 517.68  122.68 516.25  124.5 516.25  C 126.32 516.25  127.75 517.68  127.75 519.5  C 127.75 521.32  126.32 522.75  124.5 522.75  " fill-rule="nonzero" fill="#797979" stroke="none" />
</svg>