<?xml version="1.0" encoding="utf-8"?>
<svg version="1.1" xmlns:xlink="http://www.w3.org/1999/xlink" width="13px" height="13px" viewBox="117 553  13 13" xmlns="http://www.w3.org/2000/svg">
  <path d="M 123.5 553  C 127.14 553  130 555.86  130 559.5  C 130 563.14  127.14 566  123.5 566  C 119.86 566  117 563.14  117 559.5  C 117 555.86  119.86 553  123.5 553  Z " fill-rule="nonzero" fill="#f0f0f0" stroke="none" />
  <path d="M 123.5 553.5  C 126.86 553.5  129.5 556.14  129.5 559.5  C 129.5 562.86  126.86 565.5  123.5 565.5  C 120.14 565.5  117.5 562.86  117.5 559.5  C 117.5 556.14  120.14 553.5  123.5 553.5  Z " stroke-width="1" stroke="#797979" fill="none" />
  <path d="M 123.5 562.75  C 121.68 562.75  120.25 561.32  120.25 559.5  C 120.25 557.68  121.68 556.25  123.5 556.25  C 125.32 556.25  126.75 557.68  126.75 559.5  C 126.75 561.32  125.32 562.75  123.5 562.75  " fill-rule="nonzero" fill="#797979" stroke="none" />
</svg>