<?xml version="1.0" encoding="utf-8"?>
<svg version="1.1" xmlns:xlink="http://www.w3.org/1999/xlink" width="13px" height="13px" viewBox="119 683  13 13" xmlns="http://www.w3.org/2000/svg">
  <path d="M 125.5 683  C 129.14 683  132 685.86  132 689.5  C 132 693.14  129.14 696  125.5 696  C 121.86 696  119 693.14  119 689.5  C 119 685.86  121.86 683  125.5 683  Z " fill-rule="nonzero" fill="#ffffff" stroke="none" />
  <path d="M 125.5 683.5  C 128.86 683.5  131.5 686.14  131.5 689.5  C 131.5 692.86  128.86 695.5  125.5 695.5  C 122.14 695.5  119.5 692.86  119.5 689.5  C 119.5 686.14  122.14 683.5  125.5 683.5  Z " stroke-width="1" stroke="#797979" fill="none" />
  <path d="M 125.5 692.75  C 123.68 692.75  122.25 691.32  122.25 689.5  C 122.25 687.68  123.68 686.25  125.5 686.25  C 127.32 686.25  128.75 687.68  128.75 689.5  C 128.75 691.32  127.32 692.75  125.5 692.75  " fill-rule="nonzero" fill="#797979" stroke="none" />
</svg>