<?xml version="1.0" encoding="utf-8"?>
<svg version="1.1" xmlns:xlink="http://www.w3.org/1999/xlink" width="60px" height="50px" xmlns="http://www.w3.org/2000/svg">
  <g transform="matrix(1 0 0 1 -1789 -90 )">
    <path d="M 51.37546468401487 28.565861262665628  C 51.400247831474594 28.61782281111977  51.412639405204466 28.69576513380099  51 28.799688230709275  L 51 47.50584567420109  C 51.412639405204466 48.18134580410496  51.177199504337054 48.76591322421408  50.70631970260223 49.25954793452845  C 50.23543990086742 49.753182644842816  49.67781908302355 50  49.03345724907063 50  L 34 50  L 34 35.03507404520655  L 26 35.03507404520655  L 26 50  L 10.966542750929367 50  C 10.322180916976457 50  9.764560099132591 49.753182644842816  9.293680297397769 49.25954793452845  C 8.82280049566295 48.76591322421408  8.587360594795538 48.18134580410496  9 47.50584567420109  L 9 28.799688230709275  C 8.587360594795538 28.7737074564822  8.593556381660472 28.734736295141595  8.605947955390334 28.68277474668745  C 8.618339529120199 28.630813198233305  8.624535315985131 28.5918420368927  8.624535315985131 28.565861262665628  L 30 10.093530787217459  L 51.37546468401487 28.565861262665628  Z M 59.962825278810406 25.194855806703043  C 59.98760842627014 25.545596258768512  59.9008674101611 25.850870355936607  59.702602230483265 26.11067809820733  L 57.39776951672862 28.994544037412318  C 57.19950433705081 29.228371005455966  56.93928128872367 29.37126526370486  56.61710037174721 29.423226812159005  L 56.50557620817844 29.423226812159005  C 56.18339529120198 29.423226812159005  55.923172242874855 29.332294102364248  55.72490706319702 29.15042868277474  L 30 6.66406858924396  L 4.275092936802974 29.15042868277474  C 3.9776951672862455 29.358274876591317  3.680297397769517 29.449207586386073  3.382899628252788 29.423226812159005  C 3.0607187112763325 29.37126526370486  2.800495662949195 29.228371005455966  2.6022304832713754 28.994544037412318  L 0.29739776951672864 26.11067809820733  C 0.09913258983890959 25.850870355936607  0.012391573729863782 25.545596258768512  0.03717472118959108 25.194855806703043  C 0.06195786864931865 24.84411535463757  0.19826517967781918 24.564822031696544  0.44609665427509293 24.35697583787997  L 27.17472118959108 1.0132501948558081  C 27.967781908302356 0.3377500649519305  28.909541511771998 0  30 0  C 31.09045848822801 0  32.03221809169765 0.3377500649519305  32.825278810408925 1.0132501948558081  L 41.89591078066915 8.963367108339826  L 41.89591078066915 1.363990646921276  C 41.89591078066915 1.0002598077422653  42.007434944237914 0.7014809041309411  42.23048327137546 0.4676539360872978  C 42.45353159851301 0.2338269680436489  42.73853779429987 0.11691348402182444  43.08550185873606 0.11691348402182444  L 50.22304832713755 0.11691348402182444  C 50.570012391573734 0.11691348402182444  50.85501858736059 0.2338269680436489  51.07806691449814 0.4676539360872978  C 51.301115241635685 0.7014809041309411  51.412639405204466 1.0002598077422653  51 1.363990646921276  L 51 17.26422447388932  L 59.553903345724905 24.35697583787997  C 59.80173482032219 24.564822031696544  59.93804213135069 24.84411535463757  59.962825278810406 25.194855806703043  Z " fill-rule="nonzero" fill="#000000" stroke="none" transform="matrix(1 0 0 1 1789 90 )" />
  </g>
</svg>