<?xml version="1.0" encoding="utf-8"?>
<svg version="1.1" xmlns:xlink="http://www.w3.org/1999/xlink" width="13px" height="13px" viewBox="118 472  13 13" xmlns="http://www.w3.org/2000/svg">
  <path d="M 124.5 472  C 128.14 472  131 474.86  131 478.5  C 131 482.14  128.14 485  124.5 485  C 120.86 485  118 482.14  118 478.5  C 118 474.86  120.86 472  124.5 472  Z " fill-rule="nonzero" fill="#f0f0f0" stroke="none" />
  <path d="M 124.5 472.5  C 127.86 472.5  130.5 475.14  130.5 478.5  C 130.5 481.86  127.86 484.5  124.5 484.5  C 121.14 484.5  118.5 481.86  118.5 478.5  C 118.5 475.14  121.14 472.5  124.5 472.5  Z " stroke-width="1" stroke="#797979" fill="none" />
  <path d="M 124.5 481.75  C 122.68 481.75  121.25 480.32  121.25 478.5  C 121.25 476.68  122.68 475.25  124.5 475.25  C 126.32 475.25  127.75 476.68  127.75 478.5  C 127.75 480.32  126.32 481.75  124.5 481.75  " fill-rule="nonzero" fill="#797979" stroke="none" />
</svg>